<svg width="22" height="20" viewBox="0 0 22 20" fill="none" xmlns="http://www.w3.org/2000/svg">
	<path d="M4.3001 10.8654C4.12887 10.8008 3.93168 10.8363 3.8005 10.9554L2.2917 12.3279L0.782848 10.9554C0.604098 10.7925 0.313887 10.7922 0.134665 10.9547C0.0482546 11.033 -0.000214133 11.1395 7.11205e-07 11.2504V19.5837C7.11205e-07 19.8138 0.205219 20.0004 0.458348 20.0004H4.125C4.37813 20.0004 4.58335 19.8138 4.58335 19.5837V11.2504C4.58335 11.0818 4.4715 10.9298 4.3001 10.8654Z" fill="#797979" />
	<path d="M8.1162 7.62199C7.93723 7.45934 7.64711 7.45934 7.4681 7.62199L5.63475 9.28867C5.54851 9.36684 5.50004 9.47297 5.5 9.58367V19.5837C5.5 19.8138 5.70522 20.0004 5.95835 20.0004H9.625C9.87813 20.0004 10.0833 19.8138 10.0833 19.5837V9.58367C10.0836 9.47309 10.0354 9.36695 9.9495 9.28867L8.1162 7.62199Z" fill="#797979" />
	<path d="M13.6162 5.955C13.4372 5.79234 13.1471 5.79234 12.9681 5.955L11.1348 7.62168C11.0485 7.69984 11 7.80598 11 7.91668V19.5834C11 19.8135 11.2052 20 11.4583 20H15.125C15.3781 20 15.5833 19.8135 15.5833 19.5834V7.91668C15.5836 7.80609 15.5354 7.69996 15.4495 7.62168L13.6162 5.955Z" fill="#797979" />
	<path d="M20.625 7.41988e-07H17.875C17.6219 -0.000428945 17.4164 0.185821 17.4159 0.415938C17.4157 0.526876 17.4641 0.633321 17.5505 0.71168L18.6019 1.66668L15.125 4.8275L13.6162 3.455C13.4372 3.29234 13.1471 3.29234 12.9681 3.455L9.625 6.49418L8.11615 5.12168C7.93719 4.95902 7.64706 4.95902 7.46806 5.12168L2.2917 9.8275L0.78285 8.455C0.600791 8.29512 0.310623 8.29973 0.134752 8.46523C-0.0367793 8.62672 -0.0367793 8.8827 0.134752 9.04414L1.9681 10.7108C2.14706 10.8735 2.43719 10.8735 2.6162 10.7108L7.7917 6.00582L9.30054 7.3775C9.47951 7.54016 9.76964 7.54016 9.94864 7.3775L13.2917 4.33918L14.8005 5.71086C14.9795 5.87352 15.2696 5.87352 15.4486 5.71086L19.25 2.25586L20.3005 3.21086C20.3865 3.28926 20.5033 3.33332 20.625 3.33336C20.6852 3.33348 20.7447 3.3227 20.8001 3.30168C20.9715 3.23727 21.0833 3.08531 21.0834 2.91668V0.41668C21.0833 0.186563 20.8782 7.41988e-07 20.625 7.41988e-07Z" fill="#797979" />
	<path d="M20.9495 5.12199L20.0329 4.28867C19.9468 4.21059 19.83 4.1668 19.7084 4.16699H18.7917C18.6701 4.1668 18.5533 4.21055 18.4672 4.28867L16.6338 5.95535C16.548 6.03363 16.4998 6.13977 16.5 6.25035V19.5837C16.5 19.8138 16.7052 20.0004 16.9583 20.0004H20.625C20.8781 20.0004 21.0834 19.8138 21.0834 19.5837V5.41699C21.0836 5.30641 21.0354 5.20027 20.9495 5.12199Z" fill="#797979" />
</svg>
