<svg width="68" height="68" viewBox="0 0 68 68" fill="none" xmlns="http://www.w3.org/2000/svg">
	<g clip-path="url(#clip0)">
		<path d="M6.375 22.2417H8.075L6.375 23.9417V22.2417Z" fill="#E8EAE9" />
		<path d="M30.6001 25.075V61.2H61.6251V22.2417H30.6001V25.075Z" fill="#E8EAE9" />
		<path d="M68 22.2417H0L8.075 0H59.925L68 22.2417Z" fill="#FFD15C" />
		<path d="M34.85 20.8251L19.975 5.95006C18.8417 4.81678 16.8583 4.81678 15.725 5.95006L0.849967 20.8251C-0.283322 21.9584 -0.283322 23.9418 0.849967 25.0751C1.98326 26.2084 3.96668 26.2084 5.09997 25.0751L17.85 12.3251L30.6 25.0751C31.7333 26.2084 33.7167 26.2084 34.85 25.0751C35.9833 23.9418 35.9833 21.9584 34.85 20.8251Z" fill="#F7B64C" />
		<path d="M30.6001 68.0001V25.0751L17.8501 12.4668L5.1001 25.0751V68.0001H30.6001Z" fill="#F3F3F3" />
		<path d="M25.075 61.2002H10.625V40.9419H24.9333V61.2002H25.075Z" fill="#415A6B" />
		<path d="M23.0917 42.7832H12.6084V59.2165H23.0917V42.7832Z" fill="#344A5E" />
		<path d="M52.6998 43.7754H39.6665V56.8087H52.6998V43.7754Z" fill="#415A6B" />
		<path d="M50.8584 45.6167H41.3667V55.1084H50.8584V45.6167Z" fill="#55C0EB" />
		<path d="M52.6998 26.6333H39.6665V39.6666H52.6998V26.6333Z" fill="#415A6B" />
		<path d="M50.8584 28.3335H41.3667V37.8252H50.8584V28.3335Z" fill="#55C0EB" />
		<path d="M68 61.2002H0V68.0002H68V61.2002Z" fill="#CED6E0" />
		<path d="M17.8498 33.1503C21.0576 33.1503 23.6581 30.5498 23.6581 27.342C23.6581 24.1342 21.0576 21.5337 17.8498 21.5337C14.642 21.5337 12.0415 24.1342 12.0415 27.342C12.0415 30.5498 14.642 33.1503 17.8498 33.1503Z" fill="#415A6B" />
		<path d="M17.85 31.3083C15.5833 31.3083 13.8833 29.4666 13.8833 27.3416C13.8833 25.075 15.725 23.375 17.85 23.375C20.1167 23.375 21.8167 25.2167 21.8167 27.3417C21.8167 29.6083 20.1167 31.3083 17.85 31.3083Z" fill="#55C0EB" />
	</g>
	<defs>
		<clipPath id="clip0">
			<rect width="68" height="68" fill="white" />
		</clipPath>
	</defs>
</svg>
