<svg width="16" height="16" viewBox="0 0 16 16" fill="none" xmlns="http://www.w3.org/2000/svg">
    <path d="M15.0188 3.40937H12.2844V0.98125C12.2844 0.628125 12 0.34375 11.6469 0.34375H0.98125C0.628125 0.34375 0.34375 0.628125 0.34375 0.98125V11.95C0.34375 12.3031 0.628125 12.5875 0.98125 12.5875H3.71563V15.0156C3.71563 15.3687 4 15.6531 4.35313 15.6531H15.0188C15.3719 15.6531 15.6562 15.3687 15.6562 15.0156V4.04688C15.6562 3.69688 15.3719 3.40937 15.0188 3.40937ZM1.61875 11.3125V1.61875H11.0063V3.40937H4.35313C4 3.40937 3.71563 3.69375 3.71563 4.04688V11.3125H1.61875ZM14.3813 14.3813H4.99062V4.6875H14.3781V14.3813H14.3813Z" fill="#A9A9A9"/>
    <path d="M7.29058 7.9498H12.1593C12.5125 7.9498 12.7968 7.66543 12.7968 7.3123C12.7968 6.95918 12.5125 6.6748 12.1593 6.6748H7.29058C6.93745 6.6748 6.65308 6.95918 6.65308 7.3123C6.65308 7.6623 6.93745 7.9498 7.29058 7.9498Z" fill="#A9A9A9"/>
    <path d="M7.29058 12.3941H12.1593C12.5125 12.3941 12.7968 12.1098 12.7968 11.7566C12.7968 11.4035 12.5125 11.1191 12.1593 11.1191H7.29058C6.93745 11.1191 6.65308 11.4035 6.65308 11.7566C6.65308 12.1098 6.93745 12.3941 7.29058 12.3941Z" fill="#A9A9A9"/>
</svg>
