<svg width="188" height="188" viewBox="0 0 188 188" fill="none" xmlns="http://www.w3.org/2000/svg">
	<g clip-path="url(#clip0)">
		<path d="M188 94C188 102.622 186.837 110.974 184.662 118.909C183.545 122.986 182.161 126.949 180.53 130.786C176.068 141.268 169.757 150.776 162.01 158.89C161.733 159.179 161.458 159.463 161.181 159.747C157.951 163.046 154.478 166.108 150.795 168.905C150.369 169.23 149.936 169.553 149.503 169.872C148.076 170.914 146.617 171.92 145.132 172.887C142.466 174.621 139.708 176.221 136.863 177.679C136.373 177.932 135.878 178.182 135.383 178.42C132.309 179.935 129.137 181.282 125.884 182.452C125.273 182.671 124.659 182.885 124.042 183.093C121.049 184.106 117.988 184.969 114.864 185.675C108.795 187.052 102.503 187.839 96.0482 187.977C95.3698 187.993 94.687 188 94 188C93.8394 188 93.6773 188 93.5166 187.996C83.5366 187.947 73.9266 186.342 64.9176 183.412C57.0747 180.864 49.6822 177.311 42.8978 172.907C41.2369 171.828 39.6147 170.701 38.0297 169.526C38.0297 169.526 38.0254 169.526 38.0254 169.522C36.3372 168.271 34.6992 166.967 33.0999 165.604C30.8438 163.687 28.6837 161.661 26.6225 159.539C22.975 155.786 19.6331 151.732 16.6439 147.414C14.9285 144.936 13.3321 142.37 11.8561 139.726C11.8561 139.722 11.8518 139.722 11.8518 139.719C9.95996 136.331 8.27606 132.816 6.80588 129.187C5.37155 125.63 4.14807 121.969 3.14548 118.214C1.09296 110.486 0 102.372 0 94C0 42.0846 42.0846 0 94 0C145.915 0 188 42.0846 188 94Z" fill="#66BAED" />
		<path d="M161.181 159.746C144.56 176.727 121.555 187.432 96.0483 187.977V185.506C96.0483 171.598 105.491 159.9 118.318 156.469C118.785 156.343 119.257 156.228 119.736 156.125C121.011 155.848 122.319 155.656 123.646 155.548C124.459 155.484 125.277 155.449 126.106 155.449H145.68C147.872 155.449 150.001 155.679 152.057 156.125C152.176 156.148 152.295 156.174 152.41 156.201C152.756 156.281 153.102 156.366 153.443 156.458C153.454 156.462 153.459 156.462 153.47 156.466C156.213 157.199 158.806 158.315 161.181 159.746Z" fill="#3D4159" />
		<path d="M153.542 156.125L153.47 156.466L150.795 168.905C150.369 169.23 149.936 169.553 149.503 169.872C142.335 175.124 134.396 179.387 125.884 182.452C125.273 182.672 124.659 182.885 124.042 183.093L118.318 156.469L118.244 156.125H153.542Z" fill="#66BAED" />
		<path d="M143.962 166.296L136.863 177.679C136.373 177.933 135.878 178.182 135.383 178.42L127.824 166.296H143.962Z" fill="#3D4159" />
		<path d="M135.892 167.755L122.359 175.275L118.243 156.127L126.652 151.174" fill="#2BA1CF" />
		<path d="M153.542 156.128L150.795 168.905C150.369 169.231 149.936 169.553 149.503 169.872C148.076 170.914 146.617 171.92 145.132 172.887L135.894 167.753L145.132 151.175L153.542 156.128Z" fill="#2BA1CF" />
		<path d="M162.01 158.89C161.733 159.179 161.458 159.463 161.181 159.747C157.575 163.43 153.669 166.818 149.503 169.872L153.443 156.458L153.542 156.125L162.01 158.89Z" fill="#2A2F4F" />
		<path d="M125.884 182.452C122.308 183.742 118.627 184.823 114.864 185.675L113.34 181.964H117.635L108.883 159.147L118.144 156.125L118.244 156.458L125.884 182.452Z" fill="#2A2F4F" />
		<path d="M146.618 143.87V157.031C146.618 161.849 143.441 165.923 139.065 167.275C138.064 167.585 136.995 167.755 135.892 167.755C129.97 167.755 125.169 162.954 125.169 157.031V143.87H146.618Z" fill="#EAB599" />
		<path d="M146.618 156.198V157.032C146.618 161.849 143.441 165.923 139.065 167.276C135.116 166.062 132.149 162.628 131.599 158.429C132.317 158.472 133.037 158.495 133.761 158.495C135.789 158.495 137.778 158.334 139.716 158.016C142.103 157.631 144.409 157.017 146.618 156.198Z" fill="#F6CAAE" />
		<path d="M106.476 122.301C106.476 127.266 102.85 131.383 98.1007 132.146C97.5815 132.23 97.0479 132.273 96.5029 132.273C90.9937 132.273 86.53 127.81 86.53 122.301C86.53 116.791 90.9937 112.328 96.5029 112.328C97.0479 112.328 97.5815 112.371 98.1007 112.455C102.848 113.22 106.476 117.336 106.476 122.301Z" fill="#F6CAAE" />
		<path d="M106.476 122.301C106.476 127.266 102.85 131.383 98.1007 132.146C97.2373 129.011 96.7769 125.709 96.7769 122.301C96.7769 118.894 97.2373 115.592 98.1007 112.457C102.848 113.22 106.476 117.337 106.476 122.301Z" fill="#EAB599" />
		<path d="M100.067 122.301C100.067 124.27 98.4707 125.865 96.5028 125.865C94.5334 125.865 92.9385 124.27 92.9385 122.301C92.9385 120.333 94.5334 118.736 96.5028 118.736C98.4707 118.736 100.067 120.333 100.067 122.301Z" fill="#EAB599" />
		<path d="M184.662 118.908C183.545 122.986 182.161 126.949 180.53 130.786C179.007 131.73 177.211 132.275 175.285 132.275C174.74 132.275 174.208 132.229 173.686 132.144C168.939 131.381 165.309 127.265 165.309 122.299C165.309 117.335 168.939 113.221 173.686 112.454C174.208 112.371 174.74 112.328 175.285 112.328C179.605 112.328 183.277 115.072 184.662 118.908Z" fill="#F6CAAE" />
		<path d="M165.31 122.301C165.31 127.266 168.938 131.383 173.687 132.146C174.549 129.011 175.009 125.709 175.009 122.301C175.009 118.894 174.549 115.592 173.687 112.457C168.938 113.22 165.31 117.337 165.31 122.301Z" fill="#EAB599" />
		<path d="M173 102.873V117.002C173 135.466 159.51 150.785 141.848 153.628C141.789 153.638 141.726 153.648 141.667 153.658C139.788 153.958 137.86 154.107 135.892 154.107C115.402 154.107 98.7893 137.494 98.7893 117.002V102.873C98.7893 98.5581 99.5251 94.4101 100.885 90.5589C105.96 76.1181 119.719 65.7651 135.892 65.7651H135.897C137.86 65.7651 139.791 65.9172 141.673 66.2141C159.421 68.9866 173 84.3454 173 102.873Z" fill="#EAB599" />
		<path d="M178.849 122.301C178.849 124.27 177.253 125.865 175.285 125.865C173.315 125.865 171.72 124.27 171.72 122.301C171.72 120.333 173.315 118.736 175.285 118.736C177.253 118.736 178.849 120.333 178.849 122.301Z" fill="#EAB599" />
		<path d="M173 102.873V117.002C173 135.466 159.51 150.785 141.848 153.628C141.789 153.638 141.726 153.648 141.667 153.658C123.919 150.884 110.343 135.527 110.343 117.002V102.873C110.343 84.3457 123.922 68.9869 141.673 66.2144C159.421 68.9869 173 84.3442 173 102.873Z" fill="#F6CAAE" />
		<path d="M127.992 114.841C127.992 117.166 126.107 119.05 123.782 119.05C121.457 119.05 119.573 117.166 119.573 114.841C119.573 112.516 121.457 110.631 123.782 110.631C126.107 110.631 127.992 112.516 127.992 114.841Z" fill="#3D4159" />
		<path d="M152.215 114.841C152.215 117.166 150.33 119.05 148.005 119.05C145.68 119.05 143.795 117.166 143.795 114.841C143.795 112.516 145.68 110.631 148.005 110.631C150.33 110.631 152.215 112.516 152.215 114.841Z" fill="#3D4159" />
		<path d="M127.133 114.098C127.133 115.095 126.325 115.902 125.33 115.902C124.333 115.902 123.526 115.095 123.526 114.098C123.526 113.102 124.333 112.295 125.33 112.295C126.325 112.295 127.133 113.102 127.133 114.098Z" fill="white" />
		<path d="M151.564 114.098C151.564 115.095 150.756 115.902 149.759 115.902C148.764 115.902 147.957 115.095 147.957 114.098C147.957 113.102 148.764 112.295 149.759 112.295C150.756 112.295 151.564 113.102 151.564 114.098Z" fill="white" />
		<path d="M140.104 123.788H131.685C130.681 123.788 129.868 122.975 129.868 121.972C129.868 120.97 130.681 120.156 131.685 120.156H140.104C141.106 120.156 141.919 120.97 141.919 121.972C141.919 122.975 141.106 123.788 140.104 123.788Z" fill="#EAB599" />
		<path d="M135.894 135.276C132.787 135.276 129.68 134.498 126.848 132.941C126.049 132.502 125.757 131.498 126.196 130.699C126.635 129.9 127.639 129.609 128.438 130.048C133.107 132.614 138.682 132.614 143.351 130.048C144.148 129.609 145.152 129.9 145.593 130.699C146.032 131.498 145.74 132.502 144.942 132.941C142.109 134.498 139.001 135.276 135.894 135.276Z" fill="#EAB599" />
		<path d="M173 90.0485V104.524H166.094V93.1882L116.242 83.9239L105.694 81.9632V104.522H98.7878V90.0485C98.7878 73.548 112.161 60.1743 128.659 60.1743H143.129C143.522 60.1743 143.915 60.1801 144.308 60.2001C160.257 60.8155 173 73.941 173 90.0485Z" fill="#2A2F4F" />
		<path d="M173 90.0485V104.524H166.094V93.1883L116.242 83.924C118.989 70.7325 130.435 60.7352 144.308 60.2002C160.257 60.8155 173 73.941 173 90.0485Z" fill="#3D4159" />
		<path d="M93.5167 185.372V187.996C83.5366 187.947 73.9266 186.342 64.9176 183.412C55.157 180.242 46.0978 175.516 38.0298 169.526C36.3416 168.275 34.6992 166.967 33.1 165.604C30.8438 163.687 28.6837 161.661 26.6226 159.539C29.2058 157.901 32.0515 156.634 35.0836 155.825C35.5584 155.699 36.0389 155.58 36.5251 155.477C37.8232 155.195 39.1543 155 40.5083 154.889C41.333 154.82 42.1664 154.79 43.0097 154.79H62.9268C65.1514 154.79 67.323 155.023 69.4142 155.477C69.5333 155.5 69.6566 155.525 69.7714 155.553C70.1242 155.633 70.4771 155.722 70.8228 155.818C70.8342 155.818 70.8414 155.818 70.8486 155.821C74.2953 156.742 77.4981 158.251 80.3452 160.23C88.3058 165.751 93.5167 174.955 93.5167 185.372Z" fill="#E8C934" />
		<path d="M93.5165 185.372V187.996C70.4698 187.881 49.3895 179.474 33.0999 165.604C37.0629 160.924 42.4115 157.456 48.5117 155.825C48.9879 155.699 49.4669 155.58 49.9546 155.477C51.2512 155.195 52.5823 155 53.9363 154.889C54.761 154.82 55.5944 154.79 56.4378 154.79H62.9267C65.1513 154.79 67.3229 155.023 69.4141 155.477C69.5332 155.5 69.6565 155.525 69.7713 155.553C70.1241 155.633 70.477 155.722 70.8226 155.818C70.8341 155.818 70.8413 155.818 70.8484 155.821C74.2951 156.742 77.498 158.251 80.3451 160.23C88.3056 165.751 93.5165 174.955 93.5165 185.372Z" fill="#FFE152" />
		<path d="M70.9259 155.477L70.8485 155.821L64.9175 183.411C55.157 180.242 46.0977 175.516 38.0297 169.526L35.0836 155.825L35.0061 155.477H70.9259Z" fill="#F2F0EC" />
		<path d="M52.9667 167.309L42.8978 172.907C41.2368 171.828 39.6146 170.701 38.0297 169.526C38.0297 169.526 38.0254 169.526 38.0254 169.522L35.0061 155.48L43.5619 150.438L52.9667 167.309Z" fill="#D8D5D0" />
		<path d="M52.9653 167.31L66.7349 174.962L70.9231 155.48L62.3673 150.439" fill="#D8D5D0" />
		<path d="M94.0847 101.289V147.414H16.644C14.9285 144.936 13.3321 142.37 11.8562 139.726V101.289C11.8562 96.6048 12.6379 92.0121 14.1812 87.6431C19.9515 71.2144 35.5398 60.1758 52.9669 60.1758C55.127 60.1758 57.2827 60.3407 59.374 60.6735C68.9496 62.1666 77.7319 67.0548 84.1018 74.433C90.539 81.8915 94.0847 91.4297 94.0847 101.289Z" fill="#F74F4F" />
		<path d="M28.7682 103.094C28.7682 119.406 38.3209 138.284 43.5662 147.414H16.6439C14.9284 144.933 13.3292 142.366 11.8518 139.719V101.289C11.8518 96.6049 12.6349 92.0121 14.1768 87.6432C19.917 71.3091 35.359 60.3021 52.667 60.1787C40.0291 60.4943 28.7682 80.7742 28.7682 103.094Z" fill="#DD3033" />
		<path d="M63.8821 143.008V156.399C63.8821 161.301 60.6491 165.446 56.197 166.822C55.1772 167.139 54.0914 167.31 52.9669 167.31C46.9413 167.31 42.0574 162.426 42.0574 156.399V143.008H63.8821Z" fill="#EAB599" />
		<path d="M63.8819 155.551V156.399C63.8819 161.301 60.6489 165.447 56.1968 166.822C52.1792 165.587 49.1585 162.095 48.6006 157.82C49.3292 157.865 50.0622 157.886 50.798 157.886C52.8634 157.886 54.8872 157.723 56.858 157.4C59.2878 157.01 61.6343 156.385 63.8819 155.551Z" fill="#F6CAAE" />
		<path d="M23.0353 121.06C23.0353 126.113 19.3448 130.3 14.514 131.079C13.9847 131.162 13.444 131.209 12.8875 131.209C10.6054 131.209 8.50272 130.456 6.80591 129.187C5.37158 125.63 4.1481 121.969 3.14551 118.214C4.37329 113.993 8.27179 110.912 12.8875 110.912C13.444 110.912 13.9847 110.958 14.514 111.043C19.3448 111.821 23.0353 116.007 23.0353 121.06Z" fill="#F6CAAE" />
		<path d="M23.0352 121.061C23.0352 126.112 19.3461 130.301 14.5138 131.079C13.636 127.887 13.167 124.528 13.167 121.061C13.167 117.594 13.636 114.235 14.5138 111.042C19.3461 111.82 23.0352 116.01 23.0352 121.061Z" fill="#EAB599" />
		<path d="M16.5149 121.061C16.5149 123.064 14.8912 124.687 12.8875 124.687C10.8851 124.687 9.26147 123.064 9.26147 121.061C9.26147 119.058 10.8851 117.434 12.8875 117.434C14.8912 117.434 16.5149 119.058 16.5149 121.061Z" fill="#EAB599" />
		<path d="M79.0242 108.104V142.985C73.634 148.131 66.7205 151.696 59.0268 152.935C58.9666 152.945 58.9034 152.955 58.8432 152.965C56.9312 153.272 54.9691 153.423 52.9682 153.423C32.1174 153.423 15.2139 136.519 15.2139 115.668V101.291C15.2139 99.4504 15.3444 97.6388 15.5997 95.8689C24.5829 102.329 37.4617 101.691 45.6675 93.934C48.3855 91.368 50.2731 88.3114 51.3417 85.0698C51.9369 90.7469 54.5331 96.2719 59.1344 100.622C64.6135 105.796 71.8525 108.292 79.0242 108.104Z" fill="#EAB599" />
		<path d="M79.0243 108.104V142.985C73.6341 148.131 66.7207 151.696 59.027 152.935C58.9667 152.945 58.9036 152.955 58.8434 152.965C40.7838 150.144 26.9712 134.517 26.9712 115.668V101.291C26.9712 100.908 26.9784 100.529 26.9913 100.149C33.6494 100.83 40.5629 98.7619 45.6691 93.934C48.3857 91.368 50.2747 88.3114 51.3418 85.0698C51.9371 90.7469 54.5332 96.2719 59.136 100.622C64.6137 105.796 71.8527 108.292 79.0243 108.104Z" fill="#F6CAAE" />
		<path d="M73.2454 112.48C73.2454 109.016 70.437 106.209 66.9745 106.209C63.512 106.209 60.7036 109.016 60.7036 112.48" fill="#EAB599" />
		<path d="M45.2371 112.48C45.2371 109.016 42.4301 106.209 38.9677 106.209C35.5038 106.209 32.6968 109.016 32.6968 112.48" fill="#EAB599" />
		<path d="M43.2506 115.149C43.2506 117.514 41.3329 119.432 38.9662 119.432C36.601 119.432 34.6833 117.514 34.6833 115.149C34.6833 112.784 36.601 110.866 38.9662 110.866C41.3329 110.866 43.2506 112.784 43.2506 115.149Z" fill="#3D4159" />
		<path d="M71.2572 115.149C71.2572 117.514 69.3395 119.432 66.9743 119.432C64.6091 119.432 62.6914 117.514 62.6914 115.149C62.6914 112.784 64.6091 110.866 66.9743 110.866C69.3395 110.866 71.2572 112.784 71.2572 115.149Z" fill="#3D4159" />
		<path d="M57.254 125.934H48.6882C47.667 125.934 46.8408 125.106 46.8408 124.087C46.8408 123.065 47.667 122.239 48.6882 122.239H57.254C58.2738 122.239 59.1014 123.065 59.1014 124.087C59.1014 125.106 58.2738 125.934 57.254 125.934Z" fill="#EAB599" />
		<path d="M52.9714 137.622C49.8101 137.622 46.6474 136.83 43.7659 135.245C42.9526 134.798 42.6557 133.778 43.1032 132.965C43.5507 132.152 44.572 131.856 45.3838 132.302C50.1343 134.914 55.807 134.914 60.5575 132.302C61.3694 131.855 62.392 132.152 62.8381 132.965C63.2856 133.778 62.9887 134.798 62.1754 135.245C59.2939 136.83 56.1326 137.622 52.9714 137.622Z" fill="#EAB599" />
		<path d="M42.3772 114.393C42.3772 115.407 41.5554 116.229 40.5413 116.229C39.5287 116.229 38.7068 115.407 38.7068 114.393C38.7068 113.379 39.5287 112.559 40.5413 112.559C41.5554 112.559 42.3772 113.379 42.3772 114.393Z" fill="white" />
		<path d="M70.5948 114.393C70.5948 115.407 69.7729 116.229 68.7588 116.229C67.7462 116.229 66.9243 115.407 66.9243 114.393C66.9243 113.379 67.7462 112.559 68.7588 112.559C69.7729 112.559 70.5948 113.379 70.5948 114.393Z" fill="white" />
		<path d="M78.6671 125.581C78.6671 128.179 76.5615 130.284 73.9639 130.284C71.3663 130.284 69.2607 128.179 69.2607 125.581C69.2607 122.984 71.3663 120.878 73.9639 120.878C76.5615 120.878 78.6671 122.984 78.6671 125.581Z" fill="#EAB599" />
		<path d="M36.6771 125.581C36.6771 128.179 34.5715 130.284 31.9739 130.284C29.3763 130.284 27.2708 128.179 27.2708 125.581C27.2708 122.984 29.3763 120.878 31.9739 120.878C34.5715 120.878 36.6771 122.984 36.6771 125.581Z" fill="#EAB599" />
		<path d="M121.954 52.4074H63.4102C55.1026 52.4074 48.3699 45.6732 48.3699 37.3671V15.0403C48.3699 6.73416 55.104 0 63.4102 0H121.954C130.26 0 136.994 6.73416 136.994 15.0403V37.3671C136.994 45.6732 130.26 52.4074 121.954 52.4074Z" fill="#F2F0EC" />
		<path d="M64.1804 56.8049C64.1804 63.0471 59.1201 68.1074 52.8765 68.1074C46.6343 68.1074 41.574 63.0471 41.574 56.8049C41.574 50.5613 46.6343 45.501 52.8765 45.501C59.1201 45.501 64.1804 50.5613 64.1804 56.8049Z" fill="#F2F0EC" />
		<path d="M39.1758 68.1664C39.1758 71.2875 36.6456 73.8176 33.5245 73.8176C30.4034 73.8176 27.8733 71.2875 27.8733 68.1664C27.8733 65.0453 30.4034 62.5151 33.5245 62.5151C36.6456 62.5151 39.1758 65.0453 39.1758 68.1664Z" fill="#F2F0EC" />
		<path d="M145.657 56.8049C145.657 63.0471 140.596 68.1074 134.353 68.1074C128.111 68.1074 123.05 63.0471 123.05 56.8049C123.05 50.5613 128.111 45.501 134.353 45.501C140.596 45.501 145.657 50.5613 145.657 56.8049Z" fill="#F2F0EC" />
		<path d="M159.358 68.1664C159.358 71.2875 156.826 73.8176 153.705 73.8176C150.584 73.8176 148.054 71.2875 148.054 68.1664C148.054 65.0453 150.584 62.5151 153.705 62.5151C156.826 62.5151 159.358 65.0453 159.358 68.1664Z" fill="#F2F0EC" />
		<path d="M84.433 26.2039C84.433 28.9593 82.1998 31.1911 79.4444 31.1911C76.6905 31.1911 74.4573 28.9593 74.4573 26.2039C74.4573 23.45 76.6905 21.2168 79.4444 21.2168C82.1998 21.2168 84.433 23.45 84.433 26.2039Z" fill="#3D4159" />
		<path d="M97.6691 26.2039C97.6691 28.9593 95.4359 31.1911 92.6819 31.1911C89.9266 31.1911 87.6934 28.9593 87.6934 26.2039C87.6934 23.45 89.9266 21.2168 92.6819 21.2168C95.4359 21.2168 97.6691 23.45 97.6691 26.2039Z" fill="#3D4159" />
		<path d="M110.906 26.2039C110.906 28.9593 108.673 31.1911 105.918 31.1911C103.164 31.1911 100.931 28.9593 100.931 26.2039C100.931 23.45 103.164 21.2168 105.918 21.2168C108.673 21.2168 110.906 23.45 110.906 26.2039Z" fill="#3D4159" />
	</g>
	<defs>
		<clipPath id="clip0">
			<rect width="188" height="188" fill="white" />
		</clipPath>
	</defs>
</svg>
