<svg width="233" height="233" viewBox="0 0 233 233" fill="none" xmlns="http://www.w3.org/2000/svg">
	<mask id="mask0" mask-type="alpha" maskUnits="userSpaceOnUse" x="51" y="58" width="130" height="130">
		<circle cx="116.041" cy="122.921" r="64.6713" fill="#C4C4C4" />
	</mask>
	<g mask="url(#mask0)">
	</g>
	<g clip-path="url(#clip0)">
		<path d="M116.5 233C180.841 233 233 180.841 233 116.5C233 52.1588 180.841 0 116.5 0C52.1588 0 0 52.1588 0 116.5C0 180.841 52.1588 233 116.5 233Z" fill="#54B4EE" />
		<path d="M117.051 166.586C116.867 166.586 116.684 166.769 116.317 166.769C116.133 166.769 115.95 166.586 115.583 166.586H117.051Z" fill="#E6E9EE" />
		<path d="M210.251 185.299C189.152 214.103 154.844 233 116.317 233C77.7891 233 43.6647 214.287 22.3828 185.299C38.8946 167.687 61.2773 158.33 79.9907 153.56C78.3395 166.953 85.3112 184.933 85.4946 184.382C92.4663 168.237 116.133 166.77 116.133 166.77C116.133 166.77 139.8 168.054 146.955 184.382C147.139 184.749 154.11 166.953 152.459 153.56C171.356 158.33 193.739 167.687 210.251 185.299Z" fill="#E6E9EE" />
		<path d="M145.304 141.268C145.304 143.653 143.836 156.312 117.05 166.586H115.583C88.7968 156.312 87.3291 143.653 87.3291 141.268C87.5126 136.498 88.6134 131.728 90.6315 127.325C97.9701 135.581 106.776 141.085 116.317 141.085C125.673 141.085 134.663 135.764 142.002 127.325C144.02 131.728 145.304 136.498 145.304 141.268Z" fill="#FFD05B" />
		<path d="M132.278 170.806L126.407 182.548H106.226L100.355 170.806C108.427 167.32 116.316 166.77 116.316 166.77C116.316 166.77 124.389 167.32 132.278 170.806Z" fill="#F1543F" />
		<path d="M99.9883 231.899C105.309 232.633 110.813 233 116.5 233C122.004 233 127.508 232.633 133.012 231.899L126.591 182.73H106.41L99.9883 231.899Z" fill="#FF7058" />
		<path d="M145.304 140.901C145.304 140.901 146.588 155.578 116.316 166.769C116.316 166.769 139.983 168.054 147.138 184.382C147.322 185.116 161.082 149.524 145.304 140.901Z" fill="white" />
		<path d="M87.3292 140.901C71.7347 149.524 85.3111 184.932 85.678 184.382C92.6496 168.237 116.5 166.769 116.5 166.769C86.0449 155.578 87.3292 140.901 87.3292 140.901Z" fill="white" />
		<path d="M143.469 130.994C135.764 139.25 126.59 144.57 116.316 144.57C106.042 144.57 96.8691 139.25 89.1636 130.994C89.5305 129.71 90.0809 128.425 90.6313 127.325C97.9699 135.581 106.776 141.085 116.316 141.085C125.856 141.085 134.663 135.764 142.001 127.325C142.552 128.425 143.102 129.71 143.469 130.994Z" fill="#F9B54C" />
		<path d="M166.402 102.924C162.55 109.345 156.679 113.198 152.276 112.464C143.469 128.792 130.627 140.901 116.316 140.901C102.006 140.901 89.1637 128.609 80.3574 112.464C75.9543 113.014 70.0834 109.345 66.2306 102.924C61.644 95.4018 61.4606 87.1459 65.8637 84.394C66.9645 83.8436 68.0653 83.4766 69.3495 83.6601C72.285 91.1821 76.3212 95.7688 76.3212 95.7688C72.1015 72.4688 89.3472 69.9003 86.4117 47.5176C86.4117 47.5176 97.2362 71.5514 128.242 54.6727L125.857 59.2593C169.154 49.5357 154.661 100.539 154.294 101.823C159.247 95.5853 162.366 89.3475 164.201 83.6601C164.935 83.6601 165.852 84.027 166.402 84.394C171.172 86.9625 170.989 95.4018 166.402 102.924Z" fill="#FFD05B" />
		<path d="M141.268 23.2999C144.753 22.933 150.441 26.0519 150.441 26.0519C134.846 8.25584 109.345 19.6306 109.345 19.6306C117.968 12.2921 125.673 13.0259 125.673 13.0259C89.1637 7.52198 82.9259 29.3543 82.9259 29.3543C81.2747 26.7858 81.2747 23.1165 81.4582 21.2818C78.8897 25.685 81.6417 34.4913 81.6417 34.4913C79.0732 28.07 70.0834 29.1708 70.0834 29.1708C77.7889 30.455 79.0732 35.2251 79.0732 35.2251C59.8094 42.3803 63.1118 62.3779 63.1118 62.3779L67.6984 56.874C62.011 78.7062 76.5047 95.585 76.5047 95.585C72.285 72.285 89.5307 69.7165 86.5952 47.3338C86.5952 47.3338 97.4196 71.3677 128.425 54.4889L126.04 59.0755C169.888 49.1684 154.477 101.823 154.477 101.823C170.072 82.0086 167.687 61.644 167.687 61.644L169.521 68.9826C174.475 35.959 141.268 23.2999 141.268 23.2999Z" fill="#324A5E" />
	</g>
	<defs>
		<clipPath id="clip0">
			<rect width="233" height="233" fill="white" />
		</clipPath>
	</defs>
</svg>
