<svg width="68" height="68" viewBox="0 0 68 68" fill="none" xmlns="http://www.w3.org/2000/svg">
	<g clip-path="url(#clip0)">
		<path d="M63.4035 55.3119C63.4035 68.6474 50.2866 67.8823 33.9998 67.8823C17.7131 67.8823 4.59619 68.5381 4.59619 55.3119C4.59619 41.9765 17.7131 19.7871 33.9998 19.7871C50.2866 19.8964 63.4035 42.0858 63.4035 55.3119Z" fill="#F2B233" />
		<path d="M34 19.8965C50.2868 19.8965 63.4036 42.0858 63.4036 55.4213C63.4036 68.7568 50.2868 67.9916 34 67.9916" fill="#DD981D" />
		<path d="M19.6807 6.12351C19.6807 -0.325616 26.1298 0.00230585 33.9999 0.00230585C41.87 0.00230585 48.3192 -0.325616 48.3192 6.12351C48.3192 12.5726 41.87 23.394 33.9999 23.394C26.1298 23.394 19.6807 12.5726 19.6807 6.12351Z" fill="#F2B233" />
		<path d="M34 0.00230585C41.8701 0.00230585 48.3192 -0.325616 48.3192 6.12351C48.3192 12.5726 41.8701 23.394 34 23.394" fill="#DD981D" />
		<path d="M46.5703 21.0995C46.5703 22.1926 45.6959 23.067 44.6028 23.067H23.3972C22.3041 23.067 21.4297 22.1926 21.4297 21.0995V20.553C21.4297 19.4599 22.3041 18.5854 23.3972 18.5854H44.7121C45.8052 18.5854 46.6797 19.4599 46.6797 20.553V21.0995H46.5703Z" fill="#04AF76" />
		<path d="M23.0693 18.6938H44.7122C45.8052 18.6938 46.6797 19.5683 46.6797 20.6614V21.2079C46.6797 22.301 45.5866 23.1754 44.4936 23.1754" fill="#008C61" />
		<path d="M34.0002 59.4661C41.2444 59.4661 47.117 53.5935 47.117 46.3493C47.117 39.105 41.2444 33.2324 34.0002 33.2324C26.7559 33.2324 20.8833 39.105 20.8833 46.3493C20.8833 53.5935 26.7559 59.4661 34.0002 59.4661Z" fill="#04AF76" />
		<path d="M24.709 37.0582C29.8464 31.9207 38.1538 31.9207 43.2912 37.0582C48.4286 42.1956 48.4286 50.5029 43.2912 55.6404" fill="#008C61" />
		<path d="M32.907 56.9515V54.2188C30.7208 54.1095 29.5184 53.6723 28.5347 53.1257L29.1905 50.1744C30.2836 50.721 31.7046 51.2675 33.3442 51.2675C34.7652 51.2675 35.7489 50.721 35.7489 49.7372C35.7489 48.7534 34.9838 48.2069 33.0163 47.5511C30.2836 46.6766 28.5347 45.3649 28.5347 42.9602C28.5347 40.774 29.5184 39.0251 32.7976 38.4786V36.1831H34.9838V38.3692C37.1699 38.4786 37.9351 38.8065 38.7002 39.2437L38.0444 42.0857C37.3885 41.7578 36.2955 41.2112 34.4373 41.2112C32.7976 41.2112 32.2511 41.8671 32.2511 42.6322C32.2511 43.5067 33.1256 43.9439 35.3117 44.8184C38.263 45.9114 39.4654 47.2231 39.4654 49.5186C39.4654 51.814 38.263 53.6723 34.9838 54.2188V56.9515H32.907Z" fill="#FFF6E1" />
		<path d="M34 36.1831V41.2112C34 41.2112 34.3279 41.2112 34.5465 41.2112C36.4048 41.2112 37.4978 41.7578 38.1537 42.0857L38.8095 39.2437C37.9351 38.8065 37.2792 38.3692 35.0931 38.3692V36.1831H34Z" fill="#FFEEBD" />
		<path d="M35.421 44.7086C34.8745 44.49 34.3279 44.2714 34 44.1621V47.8786C35.0931 48.4251 35.7489 48.9716 35.7489 49.7368C35.7489 50.6112 35.0931 51.0485 34 51.2671V56.9511H35.0931V54.1091C38.3723 53.5625 39.5747 51.7043 39.5747 49.4089C39.5747 47.1134 38.3723 45.8017 35.421 44.7086Z" fill="#FFEEBD" />
	</g>
	<defs>
		<clipPath id="clip0">
			<rect width="68" height="68" fill="white" />
		</clipPath>
	</defs>
</svg>
