<svg width="210" height="210" viewBox="0 0 210 210" fill="none" xmlns="http://www.w3.org/2000/svg">
	<path d="M106.141 0.00830078V209.991C163.605 209.383 210 162.608 210 105C210 47.3914 163.605 0.616751 106.141 0.00830078Z" fill="#FFBB54" />
	<path d="M106.141 0.0084507C105.761 0.00422535 105.38 0 105 0C47.0113 0 0 47.0113 0 105C0 162.989 47.0113 210 105 210C105.38 210 105.761 209.996 106.141 209.992C154.268 209.265 193.099 162.537 193.099 105C193.099 47.4634 154.268 0.735211 106.141 0.0084507Z" fill="#FFD45A" />
	<path d="M119.787 106.675C119.145 106.675 118.499 106.481 117.939 106.078C114.154 103.356 109.68 101.917 105 101.917C100.554 101.917 96.2656 103.226 92.5989 105.703C91.1483 106.683 89.1784 106.302 88.199 104.851C87.2196 103.401 87.6007 101.431 89.0512 100.451C93.7697 97.2637 99.2846 95.5786 105 95.5786C111.016 95.5786 116.77 97.4302 121.64 100.933C123.061 101.955 123.384 103.936 122.362 105.356C121.743 106.217 120.772 106.675 119.787 106.675Z" fill="#FA71A3" />
	<path d="M108.169 119.351H101.831C100.081 119.351 98.6621 117.933 98.6621 116.182C98.6621 114.432 100.081 113.013 101.831 113.013H108.169C109.92 113.013 111.338 114.432 111.338 116.182C111.338 117.933 109.92 119.351 108.169 119.351Z" fill="#FFBB54" />
	<path d="M140.282 48.042C136.796 48.042 133.944 50.8941 133.944 54.38V73.3941C133.944 76.88 136.796 79.7321 140.282 79.7321C143.768 79.7321 146.62 76.88 146.62 73.3941V54.38C146.62 50.8941 143.768 48.042 140.282 48.042Z" fill="#474867" />
	<path d="M69.7184 48.0435C66.2325 48.0435 63.3804 50.8956 63.3804 54.3815V73.3956C63.3804 76.8815 66.2325 79.7336 69.7184 79.7336C73.2043 79.7336 76.0564 76.8815 76.0564 73.3956V54.3815C76.0564 50.8956 73.2043 48.0435 69.7184 48.0435Z" fill="#474867" />
	<path d="M154.276 118.356L140.282 92.4126V141.634C149.032 141.634 156.127 134.539 156.127 125.789C156.127 123.101 155.455 120.575 154.276 118.356Z" fill="#3A9DD9" />
	<path d="M144.946 118.356C145.339 120.575 145.563 123.101 145.563 125.789C145.563 134.539 143.197 141.634 140.282 141.634C131.531 141.634 124.437 134.539 124.437 125.789C124.437 123.101 125.108 120.575 126.287 118.356L140.282 92.4126L144.946 118.356Z" fill="#35B9FF" />
</svg>
