<svg width="68" height="68" viewBox="0 0 68 68" fill="none" xmlns="http://www.w3.org/2000/svg">
	<g clip-path="url(#clip0)">
		<path d="M67.051 36.93C66.9511 34.9113 66.201 32.9774 64.9684 31.373C62.1888 27.7541 61.647 24.881 61.647 24.881C59.4646 19.1625 57.5245 15.3523 56.0985 12.934C54.5982 10.3945 52.0035 8.68394 49.0774 8.30784C43.1932 7.54713 24.8029 7.54713 18.9187 8.30784C15.9946 8.68614 13.3999 10.3967 11.8996 12.934C10.4737 15.3523 8.53573 19.1625 6.35113 24.881C6.35113 24.881 5.80929 27.7541 3.0297 31.373C1.79934 32.9774 1.04699 34.9113 0.949329 36.93C0.738949 41.3098 2.00766 42.2724 3.14243 52.1836C3.23173 52.9635 3.8904 53.55 4.67672 53.55H63.3259C64.1122 53.55 64.7709 52.9613 64.8602 52.1836C65.1789 49.404 66.1247 43.7663 66.1247 43.7663C66.9532 40.9634 67.1339 38.6789 67.051 36.93Z" fill="#E95353" />
		<path d="M60.4123 24.651C58.6911 20.3436 56.9357 16.5822 55.189 13.5838C53.8651 11.3163 51.5297 9.73327 48.9457 9.38688C43.0486 8.6048 24.9115 8.61124 19.0569 9.38688C16.4729 9.73327 14.1373 11.3165 12.8134 13.5838C11.0433 16.6205 9.26462 20.4328 7.56885 24.651C25.1557 26.0344 42.8233 26.0344 60.4123 24.651Z" fill="#168DE2" />
		<path d="M57.9149 29.6325C57.2434 29.8429 56.6187 30.1383 56.0959 30.4316C55.1438 30.9629 54.1663 31.458 53.1463 31.8448C51.4548 32.4866 51.1679 33.4449 51.1679 33.4449C51.1169 33.5108 51.068 33.5767 51.0212 33.6446C49.7377 35.5508 51.4228 38.0881 53.6987 37.7651C56.9904 37.2997 59.7019 36.3456 61.079 35.7931C61.8674 35.4764 62.4836 34.8178 62.6855 33.991C62.7046 33.9124 62.7216 33.8338 62.7364 33.7572C63.2424 31.0287 60.5648 28.8059 57.9149 29.6325Z" fill="white" />
		<path d="M61.4324 44.9048H57.7709C57.2206 44.9048 56.9443 45.5699 57.3332 45.9609L60.9947 49.6224C61.3835 50.0113 62.0508 49.735 62.0508 49.1847V45.5232C62.0507 45.181 61.7744 44.9048 61.4324 44.9048Z" fill="#FFE21F" />
		<path d="M64.8597 52.1794C64.7704 52.9614 64.1096 53.55 63.3234 53.55H56.2788V57.6385C56.2788 59.0857 57.4518 60.2609 58.9012 60.2609H63.3256C64.7727 60.2609 65.9479 59.0879 65.9479 57.6385V44.8394C65.6567 46.6117 65.0915 50.1542 64.8597 52.1794Z" fill="#454545" />
		<path d="M67.9498 21.7889C67.7372 20.8368 66.8427 20.1909 65.8672 20.1909H64.0991C62.9664 20.1909 62.0484 21.109 62.0484 22.2416V23.5017H61.1113L61.6489 24.7789H63.7103C64.7771 24.7789 65.8332 24.5493 66.8023 24.1053C67.6755 23.7057 68.1644 22.7494 67.9498 21.7889Z" fill="#ED6262" />
		<path d="M59.0753 35.5128C60.4989 35.5128 61.653 34.3588 61.653 32.9351C61.653 31.5115 60.4989 30.3574 59.0753 30.3574C57.6516 30.3574 56.4976 31.5115 56.4976 32.9351C56.4976 34.3588 57.6516 35.5128 59.0753 35.5128Z" fill="#FFBD49" />
		<path d="M53.8905 36.8615C54.9362 36.8615 55.7839 36.0138 55.7839 34.9681C55.7839 33.9224 54.9362 33.0747 53.8905 33.0747C52.8448 33.0747 51.9971 33.9224 51.9971 34.9681C51.9971 36.0138 52.8448 36.8615 53.8905 36.8615Z" fill="#FFDB6F" />
		<path d="M48.9836 34.9707L46.0233 40.126H21.9764L19.0161 34.9707H48.9836Z" fill="#6F6F6F" />
		<path d="M16.9763 33.6444C16.9316 33.5764 16.8827 33.5106 16.8296 33.4447C16.8296 33.4447 16.5427 32.4863 14.8511 31.8445C13.8311 31.4577 12.8557 30.9626 11.9016 30.4313C11.3767 30.138 10.7541 29.8426 10.0825 29.6322C7.4347 28.8034 4.7551 31.0283 5.25872 33.757C5.27365 33.8356 5.29063 33.9121 5.30762 33.9908C5.5095 34.8173 6.12571 35.4761 6.91409 35.7928C8.29115 36.3453 11.0027 37.2994 14.2966 37.7648C16.5746 38.0878 18.2598 35.5505 16.9763 33.6444Z" fill="white" />
		<path d="M10.2291 44.9048H6.56762C6.22548 44.9048 5.94922 45.181 5.94922 45.5232V49.1847C5.94922 49.735 6.61652 50.0113 7.00536 49.6224L10.6669 45.9609C11.0557 45.5721 10.7795 44.9048 10.2291 44.9048Z" fill="#FFE21F" />
		<path d="M58.3782 51.2955C54.5659 44.6994 50.1819 44.9055 50.1819 44.9055H17.8153C17.8153 44.9055 13.4335 44.6994 9.619 51.2955H3.0293L3.11011 52.1455C3.18448 52.9446 3.85178 53.5503 4.6507 53.5503H63.3488C64.1479 53.5503 64.815 52.9446 64.8895 52.1457L64.9703 51.2957L58.3782 51.2955Z" fill="#777777" />
		<path d="M4.67665 53.5523C3.89033 53.5523 3.22947 52.9615 3.1403 52.1817C2.90869 50.1565 2.34124 46.6119 2.05225 44.8418V57.641C2.05225 59.0882 3.22522 60.2633 4.67459 60.2633H9.09887C10.546 60.2633 11.7212 59.0904 11.7212 57.641V53.5524H4.67665V53.5523Z" fill="#454545" />
		<path d="M5.9493 23.5017V22.2416C5.9493 21.1089 5.03122 20.1909 3.9007 20.1909H2.13274C1.15741 20.1909 0.262749 20.837 0.0501779 21.7889C-0.164448 22.7472 0.326438 23.7057 1.19768 24.1031C2.16877 24.5473 3.22286 24.7767 4.28968 24.7767H6.35102L6.88861 23.4995H5.9493V23.5017Z" fill="#ED6262" />
		<path d="M8.92242 35.5128C10.346 35.5128 11.5001 34.3588 11.5001 32.9351C11.5001 31.5115 10.346 30.3574 8.92242 30.3574C7.4988 30.3574 6.34473 31.5115 6.34473 32.9351C6.34473 34.3588 7.4988 35.5128 8.92242 35.5128Z" fill="#FFBD49" />
		<path d="M14.1117 36.8615C15.1574 36.8615 16.0051 36.0138 16.0051 34.9681C16.0051 33.9224 15.1574 33.0747 14.1117 33.0747C13.066 33.0747 12.2183 33.9224 12.2183 34.9681C12.2183 36.0138 13.066 36.8615 14.1117 36.8615Z" fill="#FFDB6F" />
		<path d="M47.7046 46.709H20.2957C19.8664 46.709 19.52 47.0574 19.52 47.4846C19.52 47.9139 19.8664 48.2603 20.2957 48.2603H47.7024C48.1316 48.2603 48.478 47.9118 48.478 47.4846C48.4802 47.0554 48.1316 46.709 47.7046 46.709Z" fill="#6F6F6F" />
		<path d="M47.7046 49.8047H20.2957C19.8664 49.8047 19.52 50.1531 19.52 50.5803C19.52 51.0096 19.8664 51.356 20.2957 51.356H47.7024C48.1316 51.356 48.478 51.0075 48.478 50.5803C48.4802 50.1511 48.1316 49.8047 47.7046 49.8047Z" fill="#6F6F6F" />
		<path d="M57.5393 18.0807V18.3462C57.5393 19.4151 56.6616 20.2716 55.5715 20.2269C54.5663 20.1632 53.7971 19.2643 53.7971 18.2379V14.4256C53.7971 13.5267 53.0492 12.8424 52.1503 12.8658C52.129 12.8658 52.129 12.8658 52.1078 12.8658C52.1078 12.8658 52.1078 12.8658 52.0866 12.8658C51.1877 12.8446 50.4397 13.5289 50.4397 14.4256V17.8745C50.4397 18.9434 49.5196 19.7998 48.4507 19.734C47.4455 19.6915 46.6763 18.7714 46.6763 17.7662V14.7677C46.6763 13.8688 45.9283 13.1208 45.0082 13.1208H44.8807C44.0242 13.1208 43.3187 13.8264 43.3187 14.6828V18.5822C43.3187 19.6511 42.4198 20.5054 41.3297 20.4629C40.3245 20.3992 39.5765 19.5003 39.5765 18.4739V13.2462C39.5765 12.4131 38.8498 11.7076 37.9933 11.7713H37.8658C36.9881 11.7713 36.2848 12.4768 36.2848 13.3333V18.6778C36.2848 19.7042 35.4518 20.5585 34.4041 20.5585C33.3989 20.5585 32.5659 19.7467 32.5447 18.7416V14.2557C32.5447 13.2293 31.7755 12.3326 30.7703 12.2667C29.6802 12.2243 28.8025 13.0785 28.8025 14.1474L28.7813 18.2913C28.7813 19.3602 27.9058 20.2144 26.8135 20.172C25.8275 20.1103 25.0795 19.2434 25.0496 18.2616V13.3992C25.0496 12.3897 24.291 11.4866 23.2815 11.4271C22.1999 11.3804 21.3073 12.2325 21.3073 13.3036V18.3973C21.2776 19.4407 20.4021 20.2716 19.3288 20.2291C18.3236 20.1654 17.5757 19.2665 17.5757 18.2401V14.4256C17.5757 13.5267 16.8065 12.8424 15.9076 12.8658C15.8863 12.8658 15.8863 12.8658 15.8863 12.8658C15.8651 12.8658 15.8651 12.8658 15.8651 12.8658C14.945 12.8446 14.197 13.5289 14.197 14.4256V17.8745C14.197 18.9434 13.2981 19.7998 12.2292 19.734C11.2984 19.6978 10.6056 18.9201 10.4867 18.019C9.49853 20.0654 8.51894 22.2818 7.56689 24.6491C25.1537 26.0347 42.8236 26.0347 60.4104 24.6491C59.4625 22.2755 58.5019 20.0867 57.5393 18.0807Z" fill="#3AA2EB" />
	</g>
	<defs>
		<clipPath id="clip0">
			<rect width="68" height="68" fill="white" />
		</clipPath>
	</defs>
</svg>
