<svg width="26" height="26" viewBox="0 0 26 26" fill="none" xmlns="http://www.w3.org/2000/svg">
	<g clip-path="url(#clip0)">
		<path d="M22.3767 14.9992C23.2392 15.8412 24.1494 16.6334 24.923 17.5604C25.2647 17.9723 25.5882 18.3974 25.8357 18.8754C26.1864 19.555 25.8687 20.3028 25.2594 20.3434L21.4716 20.3416C20.4947 20.4227 19.7154 20.0294 19.0601 19.3615C18.5357 18.8273 18.05 18.2588 17.5457 17.7066C17.339 17.4809 17.1226 17.2686 16.8641 17.1007C16.3471 16.7651 15.8982 16.8678 15.6027 17.4071C15.3018 17.9556 15.2335 18.563 15.2039 19.1743C15.1634 20.0662 14.8938 20.3007 13.9978 20.3415C12.0831 20.4318 10.266 20.1422 8.57786 19.1763C7.08956 18.3248 5.93551 17.1226 4.93095 15.7617C2.97521 13.1118 1.47742 10.1999 0.131311 7.20645C-0.171701 6.53202 0.0499084 6.17 0.794057 6.15716C2.02972 6.13314 3.26522 6.13486 4.50236 6.15543C5.00458 6.16279 5.33705 6.45082 5.53098 6.92527C6.19952 8.56911 7.01755 10.1331 8.04435 11.5827C8.31781 11.9687 8.59665 12.3547 8.99366 12.6263C9.43291 12.9271 9.76736 12.8274 9.97399 12.338C10.1051 12.0278 10.1625 11.6936 10.1921 11.3613C10.29 10.2181 10.3029 9.07677 10.1312 7.93755C10.0258 7.22656 9.62532 6.76628 8.91586 6.63176C8.55384 6.56315 8.60772 6.42843 8.78301 6.2218C9.08745 5.86542 9.3738 5.64355 9.94463 5.64355H14.2254C14.8993 5.77655 15.049 6.07931 15.1412 6.75739L15.1449 11.5124C15.1375 11.7749 15.276 12.5539 15.7488 12.7276C16.1273 12.8513 16.3767 12.5486 16.6038 12.3086C17.6287 11.2209 18.3602 9.93528 19.0137 8.6041C19.3037 8.01875 19.5531 7.41089 19.7948 6.8035C19.9738 6.35282 20.2548 6.13105 20.7625 6.14086L24.8824 6.14451C25.0046 6.14451 25.1282 6.14629 25.2465 6.16655C25.9408 6.28487 26.1311 6.58352 25.9166 7.26145C25.5788 8.32506 24.9214 9.21145 24.2787 10.1019C23.5916 11.0526 22.8567 11.9707 22.1754 12.9271C21.5494 13.8005 21.5991 14.2407 22.3767 14.9992Z" fill="#436EAB" />
	</g>
	<defs>
		<clipPath id="clip0">
			<rect width="26" height="26" fill="white" />
		</clipPath>
	</defs>
</svg>
